<svg width="291" height="56" viewBox="0 0 291 56" fill="none" xmlns="http://www.w3.org/2000/svg">
<mask id="path-1-outside-1_813_333" maskUnits="userSpaceOnUse" x="60.2941" y="2" width="231" height="54" fill="black">
<rect fill="white" x="60.2941" y="2" width="231" height="54"/>
<path d="M67.0313 12.9355C67.0313 14.5702 69.5446 15.5951 71.0071 14.8646V14.8646C72.7181 13.9932 74.6138 13.5575 76.6939 13.5575C79.1432 13.5575 81.3575 14.144 83.3369 15.317C85.3164 16.4901 86.8765 18.1659 88.0173 20.3444C89.1581 22.4895 89.7284 24.9529 89.7284 27.7346C89.7284 30.5164 89.1581 33.0133 88.0173 35.2254C86.8765 37.4038 85.2997 39.1131 83.2866 40.3533C81.3072 41.5599 79.1096 42.1631 76.6939 42.1631C74.5467 42.1631 72.6343 41.7442 70.9567 40.9063C70.3091 40.5762 69.7135 40.2097 69.17 39.8068C68.3958 39.2329 67.0313 39.746 67.0313 40.7098V40.7098C67.0313 41.2625 66.5832 41.7107 66.0304 41.7107H64.1627C62.5784 41.7107 61.2941 40.4264 61.2941 38.8421V7.37679C61.2941 5.79252 62.5784 4.50821 64.1627 4.50821V4.50821C65.747 4.50821 67.0313 5.79252 67.0313 7.3768V12.9355ZM83.8905 27.7346C83.8905 25.8242 83.4879 24.1819 82.6827 22.8078C81.9111 21.4001 80.871 20.3444 79.5625 19.6406C78.2876 18.9032 76.912 18.5345 75.4358 18.5345C73.9931 18.5345 72.6175 18.9032 71.309 19.6406C70.0341 20.378 68.994 21.4504 68.1888 22.8581C67.4171 24.2657 67.0313 25.9248 67.0313 27.8352C67.0313 29.7456 67.4171 31.4213 68.1888 32.8625C68.994 34.2702 70.0341 35.3426 71.309 36.08C72.6175 36.8174 73.9931 37.186 75.4358 37.186C76.912 37.186 78.2876 36.8174 79.5625 36.08C80.871 35.3092 81.9111 34.2032 82.6827 32.762C83.4879 31.3207 83.8905 29.645 83.8905 27.7346ZM117.646 14.0099C119.23 14.0099 120.515 15.2942 120.515 16.8785V38.8421C120.515 40.4264 119.23 41.7107 117.646 41.7107H115.623C115.156 41.7107 114.777 41.3321 114.777 40.8652V40.8652C114.777 40.0647 113.676 39.6381 113.028 40.1073C112.478 40.5052 111.87 40.8553 111.204 41.1577C109.762 41.7945 108.218 42.1129 106.574 42.1129C104.393 42.1129 102.431 41.6604 100.686 40.7555C98.9749 39.8505 97.6161 38.5099 96.6096 36.7336C95.6367 34.9573 95.1502 32.8122 95.1502 30.2986V16.8533C95.1502 15.283 96.4232 14.0099 97.9936 14.0099V14.0099C99.564 14.0099 100.837 15.283 100.837 16.8533V29.4439C100.837 31.924 101.458 33.8344 102.699 35.1751C103.941 36.4822 105.635 37.1358 107.782 37.1358C109.929 37.1358 111.624 36.4822 112.865 35.1751C114.14 33.8344 114.777 31.924 114.777 29.4439V16.8785C114.777 15.2942 116.062 14.0099 117.646 14.0099V14.0099ZM131.003 10.3399C129.963 10.3399 129.091 9.98803 128.386 9.2842C127.682 8.58037 127.329 7.70897 127.329 6.66997C127.329 5.63098 127.682 4.75958 128.386 4.05575C129.091 3.35192 129.963 3 131.003 3C132.01 3 132.865 3.35192 133.57 4.05575C134.274 4.75958 134.627 5.63098 134.627 6.66997C134.627 7.70897 134.274 8.58037 133.57 9.2842C132.865 9.98803 132.01 10.3399 131.003 10.3399ZM130.953 14.0099C132.537 14.0099 133.821 15.2942 133.821 16.8785V38.8421C133.821 40.4264 132.537 41.7107 130.953 41.7107V41.7107C129.369 41.7107 128.084 40.4264 128.084 38.8421V16.8785C128.084 15.2942 129.369 14.0099 130.953 14.0099V14.0099ZM144.222 4.50821C145.807 4.50821 147.091 5.79252 147.091 7.3768V38.8421C147.091 40.4264 145.807 41.7107 144.222 41.7107V41.7107C142.638 41.7107 141.354 40.4264 141.354 38.8421V7.37679C141.354 5.79252 142.638 4.50821 144.222 4.50821V4.50821ZM152.711 27.7346C152.711 24.9529 153.281 22.4895 154.422 20.3444C155.596 18.1994 157.173 16.5404 159.153 15.3673C161.166 14.1607 163.397 13.5575 165.846 13.5575C167.658 13.5575 169.436 13.9596 171.181 14.764V14.764C172.79 15.4617 175.408 14.3294 175.408 12.5751V7.40196C175.408 5.80379 176.704 4.50821 178.302 4.50821V4.50821C179.9 4.50821 181.196 5.80379 181.196 7.40196V38.8169C181.196 40.4151 179.9 41.7107 178.302 41.7107C177.697 41.7107 177.093 41.7107 176.409 41.7107C175.856 41.7107 175.408 41.2627 175.408 40.71V40.71C175.408 39.7319 173.979 39.2072 173.195 39.7912C172.675 40.1784 172.104 40.5333 171.483 40.856C169.839 41.7274 167.943 42.1631 165.796 42.1631C163.38 42.1631 161.166 41.5599 159.153 40.3533C157.173 39.1131 155.596 37.4038 154.422 35.2254C153.281 33.0133 152.711 30.5164 152.711 27.7346ZM175.408 27.8352C175.408 25.9248 175.005 24.2657 174.2 22.8581C173.429 21.4504 172.405 20.378 171.13 19.6406C169.855 18.9032 168.48 18.5345 167.004 18.5345C165.527 18.5345 164.152 18.9032 162.877 19.6406C161.602 20.3444 160.562 21.4001 159.757 22.8078C158.985 24.1819 158.599 25.8242 158.599 27.7346C158.599 29.645 158.985 31.3207 159.757 32.762C160.562 34.2032 161.602 35.3092 162.877 36.08C164.185 36.8174 165.561 37.186 167.004 37.186C168.48 37.186 169.855 36.8174 171.13 36.08C172.405 35.3426 173.429 34.2702 174.2 32.8625C175.005 31.4213 175.408 29.7456 175.408 27.8352ZM198.796 42.1631C196.616 42.1631 194.653 41.7776 192.908 41.0068C191.197 40.2025 189.838 39.13 188.832 37.7893C188.474 37.3011 188.176 36.7939 187.937 36.2676C187.225 34.6997 188.655 33.2144 190.377 33.2144V33.2144C191.951 33.2144 193.206 34.5564 194.291 35.6967C194.451 35.8648 194.627 36.0261 194.821 36.1806C195.861 36.9514 197.152 37.3369 198.696 37.3369C200.306 37.3369 201.548 37.0352 202.42 36.4319C203.326 35.7951 203.779 34.9907 203.779 34.0188C203.779 32.9798 203.275 32.209 202.269 31.7062C201.296 31.2035 199.736 30.6505 197.588 30.0472C195.508 29.4775 193.814 28.9245 192.506 28.3882C191.197 27.8519 190.056 27.0308 189.083 25.9248C188.144 24.8187 187.674 23.3608 187.674 21.551C187.674 20.0763 188.11 18.7356 188.983 17.5291C189.855 16.289 191.096 15.317 192.707 14.6132C194.351 13.9094 196.23 13.5575 198.343 13.5575C201.497 13.5575 204.03 14.3618 205.943 15.9706C207.119 16.9227 207.964 18.0891 208.478 19.4698C209.059 21.0276 207.671 22.4559 206.008 22.4559V22.4559C204.493 22.4559 203.34 21.1536 202.35 20.0064C202.191 19.8223 202.013 19.6501 201.816 19.4897C200.91 18.7524 199.685 18.3837 198.142 18.3837C196.632 18.3837 195.475 18.6686 194.67 19.2384C193.864 19.8081 193.462 20.5622 193.462 21.5007C193.462 22.2381 193.73 22.8581 194.267 23.3608C194.804 23.8635 195.458 24.2657 196.23 24.5674C197.001 24.8354 198.142 25.1874 199.652 25.6231C201.665 26.1594 203.309 26.7124 204.584 27.2822C205.892 27.8185 207.016 28.6228 207.956 29.6953C208.895 30.7677 209.382 32.1923 209.415 33.9685C209.415 35.5437 208.979 36.9514 208.107 38.1915C207.234 39.4317 205.993 40.4036 204.382 41.1074C202.806 41.8112 200.944 42.1631 198.796 42.1631ZM229.957 13.5575C232.071 13.5575 233.95 14.0099 235.594 14.9148C237.271 15.8198 238.58 17.1604 239.519 18.9367C240.492 20.713 240.978 22.8581 240.978 25.3718V38.8674C240.978 40.4377 239.705 41.7107 238.135 41.7107V41.7107C236.565 41.7107 235.292 40.4377 235.292 38.8674V26.2264C235.292 23.7463 234.671 21.8526 233.43 20.5455C232.188 19.2049 230.494 18.5345 228.347 18.5345C226.2 18.5345 224.489 19.2049 223.213 20.5455C221.972 21.8526 221.351 23.7463 221.351 26.2264V38.8421C221.351 40.4264 220.067 41.7107 218.483 41.7107V41.7107C216.899 41.7107 215.614 40.4264 215.614 38.8421V7.37679C215.614 5.79251 216.899 4.50821 218.483 4.50821V4.50821C220.067 4.50821 221.351 5.79252 221.351 7.37679V12.616C221.351 14.1739 223.595 15.1298 225.025 14.5127V14.5127C226.535 13.8759 228.179 13.5575 229.957 13.5575ZM251.216 10.3399C250.176 10.3399 249.304 9.98803 248.599 9.2842C247.895 8.58037 247.542 7.70897 247.542 6.66997C247.542 5.63098 247.895 4.75958 248.599 4.05575C249.304 3.35192 250.176 3 251.216 3C252.222 3 253.077 3.35192 253.783 4.05575C254.486 4.75958 254.84 5.63098 254.84 6.66997C254.84 7.70897 254.486 8.58037 253.783 9.2842C253.077 9.98803 252.222 10.3399 251.216 10.3399ZM251.165 14.0099C252.749 14.0099 254.033 15.294 254.033 16.878V38.8426C254.033 40.4266 252.749 41.7107 251.165 41.7107V41.7107C249.581 41.7107 248.297 40.4266 248.297 38.8426V16.878C248.297 15.294 249.581 14.0099 251.165 14.0099V14.0099ZM267.303 15.0395C267.303 16.0242 268.687 16.5548 269.481 15.973C270.027 15.5731 270.627 15.2036 271.28 14.8646C272.957 13.9932 274.852 13.5575 276.966 13.5575C279.381 13.5575 281.579 14.1607 283.559 15.3673C285.572 16.5404 287.149 18.1994 288.29 20.3444C289.431 22.4895 290 24.9529 290 27.7346C290 30.5164 289.431 33.0133 288.29 35.2254C287.149 37.4038 285.572 39.1131 283.559 40.3533C281.579 41.5599 279.381 42.1631 276.966 42.1631C274.852 42.1631 272.973 41.7442 271.329 40.9063V40.9063C269.792 40.0914 267.303 41.1371 267.303 42.8771V52.0143C267.303 53.5983 266.019 54.8823 264.435 54.8823V54.8823C262.851 54.8823 261.567 53.5983 261.567 52.0143V16.878C261.567 15.294 262.851 14.0099 264.435 14.0099H266.273C266.842 14.0099 267.303 14.4709 267.303 15.0395V15.0395ZM284.163 27.7346C284.163 25.8242 283.761 24.1819 282.954 22.8078C282.183 21.4001 281.143 20.3444 279.836 19.6406C278.559 18.9032 277.183 18.5345 275.708 18.5345C274.265 18.5345 272.889 18.9032 271.581 19.6406C270.307 20.378 269.267 21.4504 268.461 22.8581C267.689 24.2657 267.303 25.9248 267.303 27.8352C267.303 29.7456 267.689 31.4213 268.461 32.8625C269.267 34.2702 270.307 35.3426 271.581 36.08C272.889 36.8174 274.265 37.186 275.708 37.186C277.183 37.186 278.559 36.8174 279.836 36.08C281.143 35.3092 282.183 34.2032 282.954 32.762C283.761 31.3207 284.163 29.645 284.163 27.7346Z"/>
</mask>
<path d="M67.0313 12.9355C67.0313 14.5702 69.5446 15.5951 71.0071 14.8646V14.8646C72.7181 13.9932 74.6138 13.5575 76.6939 13.5575C79.1432 13.5575 81.3575 14.144 83.3369 15.317C85.3164 16.4901 86.8765 18.1659 88.0173 20.3444C89.1581 22.4895 89.7284 24.9529 89.7284 27.7346C89.7284 30.5164 89.1581 33.0133 88.0173 35.2254C86.8765 37.4038 85.2997 39.1131 83.2866 40.3533C81.3072 41.5599 79.1096 42.1631 76.6939 42.1631C74.5467 42.1631 72.6343 41.7442 70.9567 40.9063C70.3091 40.5762 69.7135 40.2097 69.17 39.8068C68.3958 39.2329 67.0313 39.746 67.0313 40.7098V40.7098C67.0313 41.2625 66.5832 41.7107 66.0304 41.7107H64.1627C62.5784 41.7107 61.2941 40.4264 61.2941 38.8421V7.37679C61.2941 5.79252 62.5784 4.50821 64.1627 4.50821V4.50821C65.747 4.50821 67.0313 5.79252 67.0313 7.3768V12.9355ZM83.8905 27.7346C83.8905 25.8242 83.4879 24.1819 82.6827 22.8078C81.9111 21.4001 80.871 20.3444 79.5625 19.6406C78.2876 18.9032 76.912 18.5345 75.4358 18.5345C73.9931 18.5345 72.6175 18.9032 71.309 19.6406C70.0341 20.378 68.994 21.4504 68.1888 22.8581C67.4171 24.2657 67.0313 25.9248 67.0313 27.8352C67.0313 29.7456 67.4171 31.4213 68.1888 32.8625C68.994 34.2702 70.0341 35.3426 71.309 36.08C72.6175 36.8174 73.9931 37.186 75.4358 37.186C76.912 37.186 78.2876 36.8174 79.5625 36.08C80.871 35.3092 81.9111 34.2032 82.6827 32.762C83.4879 31.3207 83.8905 29.645 83.8905 27.7346ZM117.646 14.0099C119.23 14.0099 120.515 15.2942 120.515 16.8785V38.8421C120.515 40.4264 119.23 41.7107 117.646 41.7107H115.623C115.156 41.7107 114.777 41.3321 114.777 40.8652V40.8652C114.777 40.0647 113.676 39.6381 113.028 40.1073C112.478 40.5052 111.87 40.8553 111.204 41.1577C109.762 41.7945 108.218 42.1129 106.574 42.1129C104.393 42.1129 102.431 41.6604 100.686 40.7555C98.9749 39.8505 97.6161 38.5099 96.6096 36.7336C95.6367 34.9573 95.1502 32.8122 95.1502 30.2986V16.8533C95.1502 15.283 96.4232 14.0099 97.9936 14.0099V14.0099C99.564 14.0099 100.837 15.283 100.837 16.8533V29.4439C100.837 31.924 101.458 33.8344 102.699 35.1751C103.941 36.4822 105.635 37.1358 107.782 37.1358C109.929 37.1358 111.624 36.4822 112.865 35.1751C114.14 33.8344 114.777 31.924 114.777 29.4439V16.8785C114.777 15.2942 116.062 14.0099 117.646 14.0099V14.0099ZM131.003 10.3399C129.963 10.3399 129.091 9.98803 128.386 9.2842C127.682 8.58037 127.329 7.70897 127.329 6.66997C127.329 5.63098 127.682 4.75958 128.386 4.05575C129.091 3.35192 129.963 3 131.003 3C132.01 3 132.865 3.35192 133.57 4.05575C134.274 4.75958 134.627 5.63098 134.627 6.66997C134.627 7.70897 134.274 8.58037 133.57 9.2842C132.865 9.98803 132.01 10.3399 131.003 10.3399ZM130.953 14.0099C132.537 14.0099 133.821 15.2942 133.821 16.8785V38.8421C133.821 40.4264 132.537 41.7107 130.953 41.7107V41.7107C129.369 41.7107 128.084 40.4264 128.084 38.8421V16.8785C128.084 15.2942 129.369 14.0099 130.953 14.0099V14.0099ZM144.222 4.50821C145.807 4.50821 147.091 5.79252 147.091 7.3768V38.8421C147.091 40.4264 145.807 41.7107 144.222 41.7107V41.7107C142.638 41.7107 141.354 40.4264 141.354 38.8421V7.37679C141.354 5.79252 142.638 4.50821 144.222 4.50821V4.50821ZM152.711 27.7346C152.711 24.9529 153.281 22.4895 154.422 20.3444C155.596 18.1994 157.173 16.5404 159.153 15.3673C161.166 14.1607 163.397 13.5575 165.846 13.5575C167.658 13.5575 169.436 13.9596 171.181 14.764V14.764C172.79 15.4617 175.408 14.3294 175.408 12.5751V7.40196C175.408 5.80379 176.704 4.50821 178.302 4.50821V4.50821C179.9 4.50821 181.196 5.80379 181.196 7.40196V38.8169C181.196 40.4151 179.9 41.7107 178.302 41.7107C177.697 41.7107 177.093 41.7107 176.409 41.7107C175.856 41.7107 175.408 41.2627 175.408 40.71V40.71C175.408 39.7319 173.979 39.2072 173.195 39.7912C172.675 40.1784 172.104 40.5333 171.483 40.856C169.839 41.7274 167.943 42.1631 165.796 42.1631C163.38 42.1631 161.166 41.5599 159.153 40.3533C157.173 39.1131 155.596 37.4038 154.422 35.2254C153.281 33.0133 152.711 30.5164 152.711 27.7346ZM175.408 27.8352C175.408 25.9248 175.005 24.2657 174.2 22.8581C173.429 21.4504 172.405 20.378 171.13 19.6406C169.855 18.9032 168.48 18.5345 167.004 18.5345C165.527 18.5345 164.152 18.9032 162.877 19.6406C161.602 20.3444 160.562 21.4001 159.757 22.8078C158.985 24.1819 158.599 25.8242 158.599 27.7346C158.599 29.645 158.985 31.3207 159.757 32.762C160.562 34.2032 161.602 35.3092 162.877 36.08C164.185 36.8174 165.561 37.186 167.004 37.186C168.48 37.186 169.855 36.8174 171.13 36.08C172.405 35.3426 173.429 34.2702 174.2 32.8625C175.005 31.4213 175.408 29.7456 175.408 27.8352ZM198.796 42.1631C196.616 42.1631 194.653 41.7776 192.908 41.0068C191.197 40.2025 189.838 39.13 188.832 37.7893C188.474 37.3011 188.176 36.7939 187.937 36.2676C187.225 34.6997 188.655 33.2144 190.377 33.2144V33.2144C191.951 33.2144 193.206 34.5564 194.291 35.6967C194.451 35.8648 194.627 36.0261 194.821 36.1806C195.861 36.9514 197.152 37.3369 198.696 37.3369C200.306 37.3369 201.548 37.0352 202.42 36.4319C203.326 35.7951 203.779 34.9907 203.779 34.0188C203.779 32.9798 203.275 32.209 202.269 31.7062C201.296 31.2035 199.736 30.6505 197.588 30.0472C195.508 29.4775 193.814 28.9245 192.506 28.3882C191.197 27.8519 190.056 27.0308 189.083 25.9248C188.144 24.8187 187.674 23.3608 187.674 21.551C187.674 20.0763 188.11 18.7356 188.983 17.5291C189.855 16.289 191.096 15.317 192.707 14.6132C194.351 13.9094 196.23 13.5575 198.343 13.5575C201.497 13.5575 204.03 14.3618 205.943 15.9706C207.119 16.9227 207.964 18.0891 208.478 19.4698C209.059 21.0276 207.671 22.4559 206.008 22.4559V22.4559C204.493 22.4559 203.34 21.1536 202.35 20.0064C202.191 19.8223 202.013 19.6501 201.816 19.4897C200.91 18.7524 199.685 18.3837 198.142 18.3837C196.632 18.3837 195.475 18.6686 194.67 19.2384C193.864 19.8081 193.462 20.5622 193.462 21.5007C193.462 22.2381 193.73 22.8581 194.267 23.3608C194.804 23.8635 195.458 24.2657 196.23 24.5674C197.001 24.8354 198.142 25.1874 199.652 25.6231C201.665 26.1594 203.309 26.7124 204.584 27.2822C205.892 27.8185 207.016 28.6228 207.956 29.6953C208.895 30.7677 209.382 32.1923 209.415 33.9685C209.415 35.5437 208.979 36.9514 208.107 38.1915C207.234 39.4317 205.993 40.4036 204.382 41.1074C202.806 41.8112 200.944 42.1631 198.796 42.1631ZM229.957 13.5575C232.071 13.5575 233.95 14.0099 235.594 14.9148C237.271 15.8198 238.58 17.1604 239.519 18.9367C240.492 20.713 240.978 22.8581 240.978 25.3718V38.8674C240.978 40.4377 239.705 41.7107 238.135 41.7107V41.7107C236.565 41.7107 235.292 40.4377 235.292 38.8674V26.2264C235.292 23.7463 234.671 21.8526 233.43 20.5455C232.188 19.2049 230.494 18.5345 228.347 18.5345C226.2 18.5345 224.489 19.2049 223.213 20.5455C221.972 21.8526 221.351 23.7463 221.351 26.2264V38.8421C221.351 40.4264 220.067 41.7107 218.483 41.7107V41.7107C216.899 41.7107 215.614 40.4264 215.614 38.8421V7.37679C215.614 5.79251 216.899 4.50821 218.483 4.50821V4.50821C220.067 4.50821 221.351 5.79252 221.351 7.37679V12.616C221.351 14.1739 223.595 15.1298 225.025 14.5127V14.5127C226.535 13.8759 228.179 13.5575 229.957 13.5575ZM251.216 10.3399C250.176 10.3399 249.304 9.98803 248.599 9.2842C247.895 8.58037 247.542 7.70897 247.542 6.66997C247.542 5.63098 247.895 4.75958 248.599 4.05575C249.304 3.35192 250.176 3 251.216 3C252.222 3 253.077 3.35192 253.783 4.05575C254.486 4.75958 254.84 5.63098 254.84 6.66997C254.84 7.70897 254.486 8.58037 253.783 9.2842C253.077 9.98803 252.222 10.3399 251.216 10.3399ZM251.165 14.0099C252.749 14.0099 254.033 15.294 254.033 16.878V38.8426C254.033 40.4266 252.749 41.7107 251.165 41.7107V41.7107C249.581 41.7107 248.297 40.4266 248.297 38.8426V16.878C248.297 15.294 249.581 14.0099 251.165 14.0099V14.0099ZM267.303 15.0395C267.303 16.0242 268.687 16.5548 269.481 15.973C270.027 15.5731 270.627 15.2036 271.28 14.8646C272.957 13.9932 274.852 13.5575 276.966 13.5575C279.381 13.5575 281.579 14.1607 283.559 15.3673C285.572 16.5404 287.149 18.1994 288.29 20.3444C289.431 22.4895 290 24.9529 290 27.7346C290 30.5164 289.431 33.0133 288.29 35.2254C287.149 37.4038 285.572 39.1131 283.559 40.3533C281.579 41.5599 279.381 42.1631 276.966 42.1631C274.852 42.1631 272.973 41.7442 271.329 40.9063V40.9063C269.792 40.0914 267.303 41.1371 267.303 42.8771V52.0143C267.303 53.5983 266.019 54.8823 264.435 54.8823V54.8823C262.851 54.8823 261.567 53.5983 261.567 52.0143V16.878C261.567 15.294 262.851 14.0099 264.435 14.0099H266.273C266.842 14.0099 267.303 14.4709 267.303 15.0395V15.0395ZM284.163 27.7346C284.163 25.8242 283.761 24.1819 282.954 22.8078C282.183 21.4001 281.143 20.3444 279.836 19.6406C278.559 18.9032 277.183 18.5345 275.708 18.5345C274.265 18.5345 272.889 18.9032 271.581 19.6406C270.307 20.378 269.267 21.4504 268.461 22.8581C267.689 24.2657 267.303 25.9248 267.303 27.8352C267.303 29.7456 267.689 31.4213 268.461 32.8625C269.267 34.2702 270.307 35.3426 271.581 36.08C272.889 36.8174 274.265 37.186 275.708 37.186C277.183 37.186 278.559 36.8174 279.836 36.08C281.143 35.3092 282.183 34.2032 282.954 32.762C283.761 31.3207 284.163 29.645 284.163 27.7346Z" fill="#1F1F1F"/>
<path d="M67.0313 12.9355C67.0313 14.5702 69.5446 15.5951 71.0071 14.8646V14.8646C72.7181 13.9932 74.6138 13.5575 76.6939 13.5575C79.1432 13.5575 81.3575 14.144 83.3369 15.317C85.3164 16.4901 86.8765 18.1659 88.0173 20.3444C89.1581 22.4895 89.7284 24.9529 89.7284 27.7346C89.7284 30.5164 89.1581 33.0133 88.0173 35.2254C86.8765 37.4038 85.2997 39.1131 83.2866 40.3533C81.3072 41.5599 79.1096 42.1631 76.6939 42.1631C74.5467 42.1631 72.6343 41.7442 70.9567 40.9063C70.3091 40.5762 69.7135 40.2097 69.17 39.8068C68.3958 39.2329 67.0313 39.746 67.0313 40.7098V40.7098C67.0313 41.2625 66.5832 41.7107 66.0304 41.7107H64.1627C62.5784 41.7107 61.2941 40.4264 61.2941 38.8421V7.37679C61.2941 5.79252 62.5784 4.50821 64.1627 4.50821V4.50821C65.747 4.50821 67.0313 5.79252 67.0313 7.3768V12.9355ZM83.8905 27.7346C83.8905 25.8242 83.4879 24.1819 82.6827 22.8078C81.9111 21.4001 80.871 20.3444 79.5625 19.6406C78.2876 18.9032 76.912 18.5345 75.4358 18.5345C73.9931 18.5345 72.6175 18.9032 71.309 19.6406C70.0341 20.378 68.994 21.4504 68.1888 22.8581C67.4171 24.2657 67.0313 25.9248 67.0313 27.8352C67.0313 29.7456 67.4171 31.4213 68.1888 32.8625C68.994 34.2702 70.0341 35.3426 71.309 36.08C72.6175 36.8174 73.9931 37.186 75.4358 37.186C76.912 37.186 78.2876 36.8174 79.5625 36.08C80.871 35.3092 81.9111 34.2032 82.6827 32.762C83.4879 31.3207 83.8905 29.645 83.8905 27.7346ZM117.646 14.0099C119.23 14.0099 120.515 15.2942 120.515 16.8785V38.8421C120.515 40.4264 119.23 41.7107 117.646 41.7107H115.623C115.156 41.7107 114.777 41.3321 114.777 40.8652V40.8652C114.777 40.0647 113.676 39.6381 113.028 40.1073C112.478 40.5052 111.87 40.8553 111.204 41.1577C109.762 41.7945 108.218 42.1129 106.574 42.1129C104.393 42.1129 102.431 41.6604 100.686 40.7555C98.9749 39.8505 97.6161 38.5099 96.6096 36.7336C95.6367 34.9573 95.1502 32.8122 95.1502 30.2986V16.8533C95.1502 15.283 96.4232 14.0099 97.9936 14.0099V14.0099C99.564 14.0099 100.837 15.283 100.837 16.8533V29.4439C100.837 31.924 101.458 33.8344 102.699 35.1751C103.941 36.4822 105.635 37.1358 107.782 37.1358C109.929 37.1358 111.624 36.4822 112.865 35.1751C114.14 33.8344 114.777 31.924 114.777 29.4439V16.8785C114.777 15.2942 116.062 14.0099 117.646 14.0099V14.0099ZM131.003 10.3399C129.963 10.3399 129.091 9.98803 128.386 9.2842C127.682 8.58037 127.329 7.70897 127.329 6.66997C127.329 5.63098 127.682 4.75958 128.386 4.05575C129.091 3.35192 129.963 3 131.003 3C132.01 3 132.865 3.35192 133.57 4.05575C134.274 4.75958 134.627 5.63098 134.627 6.66997C134.627 7.70897 134.274 8.58037 133.57 9.2842C132.865 9.98803 132.01 10.3399 131.003 10.3399ZM130.953 14.0099C132.537 14.0099 133.821 15.2942 133.821 16.8785V38.8421C133.821 40.4264 132.537 41.7107 130.953 41.7107V41.7107C129.369 41.7107 128.084 40.4264 128.084 38.8421V16.8785C128.084 15.2942 129.369 14.0099 130.953 14.0099V14.0099ZM144.222 4.50821C145.807 4.50821 147.091 5.79252 147.091 7.3768V38.8421C147.091 40.4264 145.807 41.7107 144.222 41.7107V41.7107C142.638 41.7107 141.354 40.4264 141.354 38.8421V7.37679C141.354 5.79252 142.638 4.50821 144.222 4.50821V4.50821ZM152.711 27.7346C152.711 24.9529 153.281 22.4895 154.422 20.3444C155.596 18.1994 157.173 16.5404 159.153 15.3673C161.166 14.1607 163.397 13.5575 165.846 13.5575C167.658 13.5575 169.436 13.9596 171.181 14.764V14.764C172.79 15.4617 175.408 14.3294 175.408 12.5751V7.40196C175.408 5.80379 176.704 4.50821 178.302 4.50821V4.50821C179.9 4.50821 181.196 5.80379 181.196 7.40196V38.8169C181.196 40.4151 179.9 41.7107 178.302 41.7107C177.697 41.7107 177.093 41.7107 176.409 41.7107C175.856 41.7107 175.408 41.2627 175.408 40.71V40.71C175.408 39.7319 173.979 39.2072 173.195 39.7912C172.675 40.1784 172.104 40.5333 171.483 40.856C169.839 41.7274 167.943 42.1631 165.796 42.1631C163.38 42.1631 161.166 41.5599 159.153 40.3533C157.173 39.1131 155.596 37.4038 154.422 35.2254C153.281 33.0133 152.711 30.5164 152.711 27.7346ZM175.408 27.8352C175.408 25.9248 175.005 24.2657 174.2 22.8581C173.429 21.4504 172.405 20.378 171.13 19.6406C169.855 18.9032 168.48 18.5345 167.004 18.5345C165.527 18.5345 164.152 18.9032 162.877 19.6406C161.602 20.3444 160.562 21.4001 159.757 22.8078C158.985 24.1819 158.599 25.8242 158.599 27.7346C158.599 29.645 158.985 31.3207 159.757 32.762C160.562 34.2032 161.602 35.3092 162.877 36.08C164.185 36.8174 165.561 37.186 167.004 37.186C168.48 37.186 169.855 36.8174 171.13 36.08C172.405 35.3426 173.429 34.2702 174.2 32.8625C175.005 31.4213 175.408 29.7456 175.408 27.8352ZM198.796 42.1631C196.616 42.1631 194.653 41.7776 192.908 41.0068C191.197 40.2025 189.838 39.13 188.832 37.7893C188.474 37.3011 188.176 36.7939 187.937 36.2676C187.225 34.6997 188.655 33.2144 190.377 33.2144V33.2144C191.951 33.2144 193.206 34.5564 194.291 35.6967C194.451 35.8648 194.627 36.0261 194.821 36.1806C195.861 36.9514 197.152 37.3369 198.696 37.3369C200.306 37.3369 201.548 37.0352 202.42 36.4319C203.326 35.7951 203.779 34.9907 203.779 34.0188C203.779 32.9798 203.275 32.209 202.269 31.7062C201.296 31.2035 199.736 30.6505 197.588 30.0472C195.508 29.4775 193.814 28.9245 192.506 28.3882C191.197 27.8519 190.056 27.0308 189.083 25.9248C188.144 24.8187 187.674 23.3608 187.674 21.551C187.674 20.0763 188.11 18.7356 188.983 17.5291C189.855 16.289 191.096 15.317 192.707 14.6132C194.351 13.9094 196.23 13.5575 198.343 13.5575C201.497 13.5575 204.03 14.3618 205.943 15.9706C207.119 16.9227 207.964 18.0891 208.478 19.4698C209.059 21.0276 207.671 22.4559 206.008 22.4559V22.4559C204.493 22.4559 203.34 21.1536 202.35 20.0064C202.191 19.8223 202.013 19.6501 201.816 19.4897C200.91 18.7524 199.685 18.3837 198.142 18.3837C196.632 18.3837 195.475 18.6686 194.67 19.2384C193.864 19.8081 193.462 20.5622 193.462 21.5007C193.462 22.2381 193.73 22.8581 194.267 23.3608C194.804 23.8635 195.458 24.2657 196.23 24.5674C197.001 24.8354 198.142 25.1874 199.652 25.6231C201.665 26.1594 203.309 26.7124 204.584 27.2822C205.892 27.8185 207.016 28.6228 207.956 29.6953C208.895 30.7677 209.382 32.1923 209.415 33.9685C209.415 35.5437 208.979 36.9514 208.107 38.1915C207.234 39.4317 205.993 40.4036 204.382 41.1074C202.806 41.8112 200.944 42.1631 198.796 42.1631ZM229.957 13.5575C232.071 13.5575 233.95 14.0099 235.594 14.9148C237.271 15.8198 238.58 17.1604 239.519 18.9367C240.492 20.713 240.978 22.8581 240.978 25.3718V38.8674C240.978 40.4377 239.705 41.7107 238.135 41.7107V41.7107C236.565 41.7107 235.292 40.4377 235.292 38.8674V26.2264C235.292 23.7463 234.671 21.8526 233.43 20.5455C232.188 19.2049 230.494 18.5345 228.347 18.5345C226.2 18.5345 224.489 19.2049 223.213 20.5455C221.972 21.8526 221.351 23.7463 221.351 26.2264V38.8421C221.351 40.4264 220.067 41.7107 218.483 41.7107V41.7107C216.899 41.7107 215.614 40.4264 215.614 38.8421V7.37679C215.614 5.79251 216.899 4.50821 218.483 4.50821V4.50821C220.067 4.50821 221.351 5.79252 221.351 7.37679V12.616C221.351 14.1739 223.595 15.1298 225.025 14.5127V14.5127C226.535 13.8759 228.179 13.5575 229.957 13.5575ZM251.216 10.3399C250.176 10.3399 249.304 9.98803 248.599 9.2842C247.895 8.58037 247.542 7.70897 247.542 6.66997C247.542 5.63098 247.895 4.75958 248.599 4.05575C249.304 3.35192 250.176 3 251.216 3C252.222 3 253.077 3.35192 253.783 4.05575C254.486 4.75958 254.84 5.63098 254.84 6.66997C254.84 7.70897 254.486 8.58037 253.783 9.2842C253.077 9.98803 252.222 10.3399 251.216 10.3399ZM251.165 14.0099C252.749 14.0099 254.033 15.294 254.033 16.878V38.8426C254.033 40.4266 252.749 41.7107 251.165 41.7107V41.7107C249.581 41.7107 248.297 40.4266 248.297 38.8426V16.878C248.297 15.294 249.581 14.0099 251.165 14.0099V14.0099ZM267.303 15.0395C267.303 16.0242 268.687 16.5548 269.481 15.973C270.027 15.5731 270.627 15.2036 271.28 14.8646C272.957 13.9932 274.852 13.5575 276.966 13.5575C279.381 13.5575 281.579 14.1607 283.559 15.3673C285.572 16.5404 287.149 18.1994 288.29 20.3444C289.431 22.4895 290 24.9529 290 27.7346C290 30.5164 289.431 33.0133 288.29 35.2254C287.149 37.4038 285.572 39.1131 283.559 40.3533C281.579 41.5599 279.381 42.1631 276.966 42.1631C274.852 42.1631 272.973 41.7442 271.329 40.9063V40.9063C269.792 40.0914 267.303 41.1371 267.303 42.8771V52.0143C267.303 53.5983 266.019 54.8823 264.435 54.8823V54.8823C262.851 54.8823 261.567 53.5983 261.567 52.0143V16.878C261.567 15.294 262.851 14.0099 264.435 14.0099H266.273C266.842 14.0099 267.303 14.4709 267.303 15.0395V15.0395ZM284.163 27.7346C284.163 25.8242 283.761 24.1819 282.954 22.8078C282.183 21.4001 281.143 20.3444 279.836 19.6406C278.559 18.9032 277.183 18.5345 275.708 18.5345C274.265 18.5345 272.889 18.9032 271.581 19.6406C270.307 20.378 269.267 21.4504 268.461 22.8581C267.689 24.2657 267.303 25.9248 267.303 27.8352C267.303 29.7456 267.689 31.4213 268.461 32.8625C269.267 34.2702 270.307 35.3426 271.581 36.08C272.889 36.8174 274.265 37.186 275.708 37.186C277.183 37.186 278.559 36.8174 279.836 36.08C281.143 35.3092 282.183 34.2032 282.954 32.762C283.761 31.3207 284.163 29.645 284.163 27.7346Z" stroke="#1F1F1F" stroke-width="1.4" mask="url(#path-1-outside-1_813_333)"/>
<path d="M37.2831 28.8704C40.8055 32.0661 39.7538 36.5704 33.4057 47.7469C32.9486 48.5517 31.7281 48.3404 31.5224 47.4381C27.9424 31.732 20.231 25.2179 3.66292 24.2071C2.74171 24.1509 2.33739 22.9865 3.05529 22.4065C12.7153 14.6022 16.881 13.1661 21.0414 15.2859M37.2831 28.8704C44.0946 20.6523 45.7684 14.6998 45.9824 3.25205C45.9944 2.61115 45.4022 2.12843 44.7767 2.26863C33.8793 4.71118 28.2999 7.37544 21.0414 15.2859M37.2831 28.8704C35.6548 30.7379 34.5139 31.8313 32.9863 32.7776C32.2891 33.2095 31.4627 32.5765 31.7604 31.8124C32.5853 29.6945 34.098 29.0167 37.2831 28.8704ZM21.0414 15.2859C19.5081 17.0819 18.646 18.8077 18.1373 20.344C17.8792 21.1232 18.6948 21.7592 19.3721 21.2955C21.3276 19.9567 21.5491 18.4825 21.0414 15.2859Z" stroke="#1F1F1F" stroke-width="4"/>
<path d="M12.247 44.835C15.7855 44.1348 17.9452 43.0818 20.5965 40.313C20.9197 39.9754 20.9519 39.4535 20.6744 39.0773C18.8961 36.6667 17.4921 35.5225 15.1092 34.3688C14.6881 34.1649 14.1811 34.2945 13.9114 34.6768C11.8054 37.6614 11.17 40.0257 11.0989 43.8709C11.0875 44.4858 11.6437 44.9543 12.247 44.835Z" fill="#2986CC" stroke="#2986CC" stroke-width="4" stroke-linecap="round"/>
</svg>
